<svg width="24" height="24" viewBox="0 0 24 24" fill="none" xmlns="http://www.w3.org/2000/svg">
<path d="M18.5552 12C18.5544 10.9905 18.3161 9.99544 17.8596 9.09507C17.4031 8.19471 16.7413 7.41433 15.9276 6.81697L15.4293 4.05269C15.3747 3.75621 15.2176 3.48837 14.9856 3.29595C14.7535 3.10353 14.4612 2.99879 14.1597 3.00001H10.0936C9.79217 2.99879 9.49986 3.10353 9.26779 3.29595C9.03571 3.48837 8.87863 3.75621 8.824 4.05269L8.32578 6.81697C7.51196 7.4141 6.85018 8.19449 6.39404 9.09494C5.93789 9.99539 5.7002 10.9906 5.7002 12C5.7002 13.0094 5.93789 14.0046 6.39404 14.9051C6.85018 15.8055 7.51196 16.5859 8.32578 17.183L8.824 19.9473C8.87863 20.2438 9.03571 20.5116 9.26779 20.7041C9.49986 20.8965 9.79217 21.0012 10.0936 21H14.1597C14.4612 21.0012 14.7535 20.8965 14.9856 20.7041C15.2176 20.5116 15.3747 20.2438 15.4293 19.9473L15.9276 17.183C16.7413 16.5857 17.4031 15.8053 17.8596 14.9049C18.3161 14.0046 18.5544 13.0095 18.5552 12ZM10.0936 4.28572H14.1597L14.4731 6.02144C12.9664 5.4212 11.2869 5.4212 9.78024 6.02144L10.0936 4.28572ZM6.98382 12C6.98382 10.9828 7.28544 9.98852 7.85055 9.14278C8.41565 8.29705 9.21885 7.63788 10.1586 7.24863C11.0983 6.85938 12.1324 6.75753 13.13 6.95597C14.1276 7.15441 15.044 7.64421 15.7632 8.36345C16.4825 9.0827 16.9723 9.99906 17.1707 10.9967C17.3691 11.9943 17.2673 13.0284 16.878 13.9681C16.4888 14.9078 15.8296 15.711 14.9839 16.2761C14.1381 16.8412 13.1438 17.1429 12.1267 17.1429C10.7634 17.1407 9.45648 16.5982 8.49247 15.6342C7.52846 14.6702 6.98594 13.3633 6.98382 12ZM14.1597 19.7143H10.0936L9.78024 17.9786C11.2869 18.5788 12.9664 18.5788 14.4731 17.9786L14.1597 19.7143ZM11.4838 12V8.78572C11.4838 8.61522 11.5515 8.45171 11.6721 8.33115C11.7927 8.21059 11.9562 8.14286 12.1267 8.14286C12.2972 8.14286 12.4607 8.21059 12.5812 8.33115C12.7018 8.45171 12.7695 8.61522 12.7695 8.78572C12.7695 8.95621 12.7695 11.3571 12.7695 11.3571H15.341C15.5114 11.3571 15.675 11.4249 15.7955 11.5454C15.9161 11.666 15.9838 11.8295 15.9838 12C15.9838 12.1705 15.9161 12.334 15.7955 12.4546C15.675 12.5751 15.5114 12.6429 15.341 12.6429H12.1267C11.9562 12.6429 11.7927 12.5751 11.6721 12.4546C11.5515 12.334 11.4838 12.1705 11.4838 12Z" fill="black"/>
</svg>
