<svg width="24" height="24" viewBox="0 0 24 24" fill="none" xmlns="http://www.w3.org/2000/svg">
<g clip-path="url(#clip0_1401_10713)">
<path d="M3.31923 6.19604H3.31922C2.73626 6.19604 2.26367 6.75788 2.26367 7.45094V16.8627C2.26367 17.5558 2.73626 18.1176 3.31922 18.1176H3.31923C3.9022 18.1176 4.37479 17.5558 4.37479 16.8627V7.45094C4.37479 6.75788 3.9022 6.19604 3.31923 6.19604Z" fill="#F3F3F3" stroke="black" stroke-width="0.666666"/>
<path d="M5.43056 4.62769H5.43055C4.84759 4.62769 4.375 5.18952 4.375 5.88258V18.4316C4.375 19.1247 4.84759 19.6865 5.43055 19.6865H5.43056C6.01353 19.6865 6.48611 19.1247 6.48611 18.4316V5.88258C6.48611 5.18952 6.01353 4.62769 5.43056 4.62769Z" fill="#E9E9E9" stroke="black" stroke-width="0.666666"/>
<path d="M19.6806 5.88232H19.6806C19.0976 5.88232 18.625 6.44416 18.625 7.13722V16.549C18.625 17.2421 19.0976 17.8039 19.6806 17.8039H19.6806C20.2635 17.8039 20.7361 17.2421 20.7361 16.549V7.13722C20.7361 6.44416 20.2635 5.88232 19.6806 5.88232Z" fill="#F3F3F3" stroke="black" stroke-width="0.666666"/>
<path d="M17.5692 4.31372H17.5692C16.9863 4.31372 16.5137 4.87556 16.5137 5.56862V18.1176C16.5137 18.8107 16.9863 19.3725 17.5692 19.3725H17.5692C18.1522 19.3725 18.6248 18.8107 18.6248 18.1176V5.56862C18.6248 4.87556 18.1522 4.31372 17.5692 4.31372Z" fill="#D9D9D9" stroke="black" stroke-width="0.666666"/>
<path d="M16.5141 10.5884H6.48633V13.0982H16.5141V10.5884Z" fill="#CBCBCB" stroke="black" stroke-width="0.666666"/>
</g>
<defs>
<clipPath id="clip0_1401_10713">
<rect width="19" height="16" fill="white" transform="translate(2 4)"/>
</clipPath>
</defs>
</svg>
