<svg width="101" height="100" viewBox="0 0 101 100" fill="none" xmlns="http://www.w3.org/2000/svg">
<circle cx="38.1221" cy="30" r="10" fill="#5DE2FF" fill-opacity="0.5"/>
<path d="M38.3532 72.746V72.9C38.3532 74.02 37.4712 75.084 35.4692 75.448L36.2112 76.89C38.7032 76.386 39.8512 74.818 39.8512 72.9V72.746H38.3532ZM38.7312 72.746V72.9C38.7312 74.734 39.8792 76.232 42.3292 76.694L43.0572 75.266C41.0972 74.916 40.2292 73.95 40.2292 72.9V72.746H38.7312ZM35.8192 71.57V72.998H42.7492V71.57H35.8192ZM38.3532 70.31V72.592H40.2292V70.31H38.3532ZM38.3392 77.646V82.854H40.2012V77.646H38.3392ZM44.0092 70.282V83.246H45.8572V70.282H44.0092ZM35.2732 78.948C37.5832 78.948 40.5932 78.906 43.3932 78.402L43.2672 77.058C40.5512 77.422 37.4012 77.436 35.0492 77.436L35.2732 78.948ZM48.1221 71.444V80.166H54.3521V71.444H48.1221ZM52.5321 72.9V78.696H49.9561V72.9H52.5321ZM56.3681 70.268V83.274H58.2441V70.268H56.3681Z" fill="black"/>
<path d="M55.8479 26.2203L55.8484 26.2206C59.3587 28.7736 59.9986 31.0693 60.1187 31.8213L60.1186 31.8213L60.1201 31.8301C60.1203 31.8313 60.1203 31.8325 60.12 31.8336L60.12 31.8336C60.1197 31.8348 60.1192 31.8359 60.1185 31.8368L60.1162 31.84L50.0442 45.738L50.0441 45.7381L47.3192 49.4989L47.2696 49.222L46.1759 49.4181C47.2696 49.222 47.2695 49.2215 47.2694 49.2208L47.2691 49.2196L47.2686 49.2169L47.2675 49.2108L47.2646 49.1959C47.2624 49.1847 47.2597 49.1712 47.2562 49.1554C47.2494 49.1238 47.24 49.0829 47.2274 49.0335C47.2021 48.9346 47.164 48.8014 47.1083 48.6391C46.9969 48.3144 46.8149 47.8732 46.5237 47.3579C45.9393 46.3237 44.9241 45.0075 43.1877 43.7437L43.1876 43.7436C41.4492 42.4788 39.8842 41.9177 38.7201 41.6801C38.1401 41.5618 37.6643 41.5246 37.321 41.5188C37.1494 41.5158 37.0109 41.5207 36.9091 41.5272C36.8582 41.5305 36.8164 41.5341 36.7841 41.5374C36.768 41.539 36.7543 41.5406 36.743 41.5419L36.7279 41.5438L36.7218 41.5446L36.719 41.545L36.7177 41.5451C36.7171 41.5452 36.7165 41.5453 36.8679 42.6461L36.7165 41.5453L36.3608 41.5942L39.9535 36.6361L39.9536 36.636L49.1935 23.8881L49.1974 23.8828C49.953 23.7664 52.336 23.6634 55.8479 26.2203ZM40.4479 53.5902C40.5389 53.6157 40.6315 53.6323 40.7246 53.6402L34.135 56.1602L34.1334 56.1608C34.1321 56.1614 34.1306 56.1616 34.1291 56.1614L33.984 57.2615L34.1291 56.1614C34.1276 56.1612 34.1262 56.1606 34.125 56.1597C34.1238 56.1589 34.1229 56.1577 34.1222 56.1564C34.1216 56.155 34.1213 56.1535 34.1214 56.1521L34.1215 56.1505L34.4958 49.0386C34.536 49.1552 34.5907 49.2671 34.6592 49.3715L35.5881 48.7619L34.6592 49.3715C34.8359 49.6407 35.0947 49.8457 35.3972 49.9559C36.2332 50.2624 37.0211 50.6871 37.7366 51.217L37.7449 51.2231L37.7534 51.2291C38.4771 51.7445 39.1221 52.3622 39.6683 53.063C39.8644 53.3182 40.1378 53.5032 40.4479 53.5902Z" stroke="black" stroke-width="2.22222"/>
</svg>
