<svg width="101" height="100" viewBox="0 0 101 100" fill="none" xmlns="http://www.w3.org/2000/svg">
<ellipse cx="59.1221" cy="31.5" rx="12" ry="12.5" fill="#88FFDB" fill-opacity="0.5"/>
<path d="M45.4352 64.282V74.418H47.2972V64.282H45.4352ZM46.6392 68.524V70.036H48.9212V68.524H46.6392ZM38.6452 75.538V77.022H47.7312V75.538H38.6452ZM38.6452 73.76V75.972H40.5212V73.76H38.6452ZM39.9472 70.512V72.402H41.8092V70.512H39.9472ZM37.0632 73.158C39.2752 73.13 42.3132 73.074 45.0012 72.57L44.8612 71.296C42.2292 71.688 39.1072 71.73 36.8532 71.73L37.0632 73.158ZM37.1892 65.318V66.662H44.5392V65.318H37.1892ZM40.8712 66.998C38.9672 66.998 37.7072 67.754 37.7072 69.014C37.7072 70.246 38.9672 71.016 40.8712 71.016C42.7752 71.016 44.0212 70.246 44.0212 69.014C44.0212 67.754 42.7752 66.998 40.8712 66.998ZM40.8712 68.244C41.7392 68.244 42.2572 68.496 42.2572 69.014C42.2572 69.504 41.7392 69.756 40.8712 69.756C39.9892 69.756 39.4712 69.504 39.4712 69.014C39.4712 68.496 39.9892 68.244 40.8712 68.244ZM39.9472 64.226V65.892H41.8092V64.226H39.9472ZM55.7221 66.326V67.81H58.7601V66.326H55.7221ZM55.6241 69.014V70.498H58.6621V69.014H55.6241ZM58.4661 64.282V71.744H60.3281V64.282H58.4661ZM54.2381 65.164V66.06C54.2381 68.09 52.8661 69.714 49.5761 70.568L50.3041 72.038C54.2381 70.96 56.2261 68.692 56.2261 65.164H54.2381ZM50.2901 65.164V66.648H55.5401V65.164H50.2901ZM56.0301 71.912C53.3981 71.912 51.6481 72.92 51.6481 74.544C51.6481 76.168 53.3981 77.19 56.0301 77.19C58.6621 77.19 60.4121 76.168 60.4121 74.544C60.4121 72.92 58.6621 71.912 56.0301 71.912ZM56.0301 73.34C57.6261 73.34 58.5781 73.746 58.5781 74.544C58.5781 75.342 57.6261 75.734 56.0301 75.734C54.4481 75.734 53.4961 75.342 53.4961 74.544C53.4961 73.746 54.4481 73.34 56.0301 73.34Z" fill="black"/>
<path d="M30.1221 48C36.6315 7.12923 50.0283 26.2722 56.1221 48" stroke="black" stroke-width="2" stroke-linecap="round"/>
<path d="M51.1221 34.6396C55.1697 27.4455 59.5242 26.3782 68.1221 48" stroke="black" stroke-width="2" stroke-linecap="round"/>
<line x1="30.1221" y1="48" x2="68.1221" y2="48" stroke="black" stroke-width="2" stroke-linecap="round"/>
</svg>
