<svg width="24" height="24" viewBox="0 0 24 24" fill="none" xmlns="http://www.w3.org/2000/svg">
<path d="M9.63841 20C9.27091 18.8019 8.71666 17.9083 7.97529 17.3199C6.86341 16.4375 5.09679 16.9861 4.44429 16.0756C3.79179 15.1651 4.90141 13.4911 5.29066 12.5034C5.68029 11.5156 3.79816 11.1665 4.01791 10.886C4.16416 10.6989 5.11554 10.1596 6.87129 9.2675C7.37004 6.42275 9.21241 5 12.3992 5C17.1789 5 18.9999 9.05225 18.9999 11.63C18.9999 14.207 16.7949 16.9835 13.6539 17.5824C13.373 17.9911 13.778 18.7974 14.8689 20" stroke="black" stroke-width="0.9" stroke-linecap="round" stroke-linejoin="round"/>
<path d="M9.81273 8.93758C9.56748 9.88783 9.64023 10.5553 10.0314 10.9397C10.4221 11.3237 11.0881 11.5753 12.0294 11.6935C11.8156 12.9193 12.0762 13.4942 12.8105 13.4184C13.5447 13.3431 13.9861 13.0378 14.1342 12.5035C15.2817 12.826 15.9039 12.556 16.0002 11.6935C16.1446 10.3997 15.4471 9.36808 15.161 9.36808C14.8752 9.36808 14.1342 9.3332 14.1342 8.93758C14.1342 8.54195 13.2687 8.31883 12.4876 8.31883C11.7065 8.31883 12.1764 7.79195 11.1039 8.00008C10.3887 8.13883 9.95823 8.4512 9.81273 8.93758V8.93758Z" stroke="black" stroke-width="0.9" stroke-linejoin="round"/>
<path d="M13.9368 13.0625C13.5554 13.2991 13.0323 13.6925 12.8118 14C12.2609 14.7687 11.8143 15.2368 11.7168 15.728" stroke="black" stroke-width="0.9" stroke-linecap="round"/>
</svg>
