<svg width="101" height="100" viewBox="0 0 101 100" fill="none" xmlns="http://www.w3.org/2000/svg">
<path d="M43.4781 78.346C40.6781 78.346 38.8861 79.27 38.8861 80.81C38.8861 82.322 40.6781 83.246 43.4781 83.246C46.2781 83.246 48.0701 82.322 48.0701 80.81C48.0701 79.27 46.2781 78.346 43.4781 78.346ZM43.4781 79.746C45.2281 79.746 46.2221 80.11 46.2221 80.81C46.2221 81.496 45.2281 81.846 43.4781 81.846C41.7281 81.846 40.7341 81.496 40.7341 80.81C40.7341 80.11 41.7281 79.746 43.4781 79.746ZM39.0261 70.856V72.326H47.2301V70.856H39.0261ZM37.7101 76.064V77.548H49.3861V76.064H37.7101ZM42.0361 73.81V76.442H43.8841V73.81H42.0361ZM46.1521 70.856V71.92C46.1521 72.928 46.1521 73.866 45.8021 75.196L47.6501 75.392C48.0001 74.048 48.0001 72.942 48.0001 71.92V70.856H46.1521ZM50.153 77.744V79.214H61.899V77.744H50.153ZM55.053 78.486V83.246H56.901V78.486H55.053ZM51.497 70.772V76.512H60.513V70.772H58.665V72.242H53.345V70.772H51.497ZM53.345 73.698H58.665V75.028H53.345V73.698Z" fill="black"/>
<path d="M45.406 55C44.475 51.9647 43.0709 49.7009 41.1928 48.2104C38.376 45.975 33.9006 47.3648 32.2476 45.0582C30.5946 42.7516 33.4057 38.5109 34.3918 36.0086C35.3788 33.5063 30.6108 32.6218 31.1675 31.9112C31.538 31.4371 33.9481 30.071 38.396 27.811C39.6595 20.6043 44.3269 17 52.4 17C64.5087 17 69.1218 27.2657 69.1218 33.796C69.1218 40.3244 63.5359 47.3582 55.5787 48.8754C54.8671 49.9109 55.8931 51.9533 58.6567 55" stroke="black" stroke-width="1.9" stroke-linecap="round" stroke-linejoin="round"/>
<path d="M45.8466 26.9753C45.2253 29.3826 45.4096 31.0736 46.4005 32.0474C47.3904 33.0202 49.0776 33.6576 51.4621 33.9569C50.9206 37.0624 51.5808 38.5188 53.4409 38.3269C55.301 38.1359 56.4192 37.3626 56.7944 36.0089C59.7014 36.8259 61.2775 36.1419 61.5216 33.9569C61.8874 30.6794 60.1204 28.0659 59.3955 28.0659C58.6716 28.0659 56.7944 27.9776 56.7944 26.9753C56.7944 25.9731 54.6018 25.4078 52.623 25.4078C50.6441 25.4078 51.8345 24.0731 49.1175 24.6003C47.3058 24.9518 46.2152 25.7432 45.8466 26.9753Z" fill="#E64DFF" fill-opacity="0.5" stroke="black" stroke-width="1.9" stroke-linejoin="round"/>
<path d="M56.2969 37.4253C55.3307 38.0247 54.0055 39.0213 53.4469 39.8003C52.0513 41.7478 50.9199 42.9334 50.6729 44.1779" stroke="black" stroke-width="1.9" stroke-linecap="round"/>
</svg>
