<svg width="24" height="24" viewBox="0 0 24 24" fill="none" xmlns="http://www.w3.org/2000/svg">
<path d="M6.3324 15.8104L6.41684 14.2061C6.42326 14.0841 6.44277 13.9637 6.47467 13.8469C6.4955 13.7707 6.52161 13.696 6.55281 13.6234C6.60214 13.5086 6.66421 13.399 6.73823 13.2969L6.3324 15.8104ZM6.3324 15.8104L6.78243 15.8376M6.3324 15.8104L6.33229 15.8125L6.78243 15.8376M6.78243 15.8376L6.89223 13.8702L9.24123 17.6286C9.20652 17.6423 9.16831 17.6442 9.1324 17.6342C9.09649 17.6241 9.06486 17.6025 9.04233 17.5728C8.76648 17.2186 8.44056 16.9063 8.07483 16.6458C7.71421 16.3788 7.31717 16.1648 6.89583 16.0104C6.86083 15.9977 6.83088 15.974 6.81044 15.9428C6.79001 15.9117 6.78018 15.8748 6.78243 15.8376ZM15.9273 5.79914L15.9275 5.79929C17.5072 6.94812 17.7951 7.9812 17.8492 8.31957L17.8492 8.31958L17.8498 8.32355C17.8499 8.32407 17.8499 8.32461 17.8498 8.32513C17.8497 8.32565 17.8494 8.32614 17.8491 8.32657L17.8481 8.32802L13.3157 14.5821L13.3156 14.5822L12.0894 16.2745L12.0671 16.1499L11.5749 16.2381C12.0671 16.1499 12.067 16.1497 12.067 16.1494L12.0669 16.1488L12.0667 16.1476L12.0662 16.1448L12.0649 16.1381L12.0611 16.1199C12.058 16.1057 12.0538 16.0873 12.0481 16.0651C12.0367 16.0206 12.0196 15.9606 11.9945 15.8876C11.9444 15.7415 11.8625 15.5429 11.7315 15.3111C11.4685 14.8457 11.0116 14.2534 10.2303 13.6847L10.2302 13.6846C9.44792 13.1155 8.74366 12.863 8.21981 12.7561C7.95884 12.7028 7.7447 12.6861 7.59023 12.6834C7.51301 12.6821 7.4507 12.6843 7.40487 12.6873C7.38195 12.6887 7.36314 12.6904 7.34864 12.6918L7.33013 12.6939L7.32334 12.6947L7.32057 12.6951L7.31934 12.6952L7.31876 12.6953C7.31848 12.6953 7.31821 12.6954 7.38633 13.1907L7.31821 12.6954L7.15813 12.7174L8.77487 10.4863L8.7749 10.4862L12.9329 4.74966L12.9329 4.74972L12.9347 4.74724C13.2748 4.69487 14.3471 4.64858 15.9273 5.79914ZM8.99734 18.1156C9.03827 18.1271 9.07996 18.1346 9.12186 18.1381L6.15653 19.2721L6.15583 19.2724C6.15521 19.2726 6.15454 19.2727 6.15387 19.2726C6.1532 19.2725 6.15258 19.2723 6.15204 19.2719C6.1515 19.2715 6.15106 19.271 6.15078 19.2704C6.15049 19.2698 6.15036 19.2691 6.1504 19.2684L6.15044 19.2677L6.31887 16.0674C6.33697 16.1199 6.36159 16.1702 6.39242 16.2172C6.47178 16.3381 6.58799 16.4302 6.72382 16.4799C7.10029 16.6178 7.45505 16.809 7.77727 17.0476L7.77721 17.0477L7.78479 17.0531C8.11046 17.285 8.40074 17.563 8.64653 17.8784C8.73477 17.9932 8.85782 18.0764 8.99734 18.1156ZM6.28334 15.8075C6.28331 15.808 6.28328 15.8085 6.28325 15.809L6.70725 13.2744L6.3334 13.0036L6.70722 13.2745L6.48784 13.5762L6.40121 13.6953L6.393 13.8424L6.37283 14.2038L6.28334 15.8075Z" stroke="black"/>
</svg>
