<svg width="101" height="100" viewBox="0 0 101 100" fill="none" xmlns="http://www.w3.org/2000/svg">
<ellipse cx="59.1221" cy="22.5" rx="12" ry="12.5" fill="#9AFF5D" fill-opacity="0.5"/>
<path d="M27.3743 73.066V74.564C27.3743 76.02 26.6603 77.616 24.8543 78.414L25.8343 79.856C27.9483 78.96 28.8303 76.762 28.8303 74.564V73.066H27.3743ZM27.7103 73.066V74.564C27.7103 76.678 28.5643 78.638 30.5803 79.436L31.5743 78.022C29.8663 77.35 29.1663 75.95 29.1663 74.564V73.066H27.7103ZM34.3183 72.296V80.206H36.0823V72.296H34.3183ZM32.7643 75.432V76.93H34.8223V75.432H32.7643ZM31.5743 72.534V79.8H33.3103V72.534H31.5743ZM31.6863 80.388C28.9563 80.388 27.2343 81.298 27.2343 82.824C27.2343 84.336 28.9563 85.246 31.6863 85.246C34.4023 85.246 36.1523 84.336 36.1523 82.824C36.1523 81.298 34.4023 80.388 31.6863 80.388ZM31.6863 81.788C33.3523 81.788 34.2763 82.138 34.2763 82.824C34.2763 83.51 33.3523 83.846 31.6863 83.846C30.0203 83.846 29.0823 83.51 29.0823 82.824C29.0823 82.138 30.0203 81.788 31.6863 81.788ZM45.9352 72.282V79.898H47.7972V72.282H45.9352ZM47.1392 75.334V76.86H49.4212V75.334H47.1392ZM39.0752 80.374V81.606H45.9632V82.166H39.0892V84.35H40.9372V83.314H47.7972V80.374H39.0752ZM39.0892 83.93V85.162H48.2452V83.93H39.0892ZM40.4472 77.462V79.31H42.3092V77.462H40.4472ZM37.5492 79.786C39.7892 79.786 42.7712 79.772 45.5012 79.296L45.3612 78.162C42.7432 78.512 39.6492 78.526 37.3532 78.526L37.5492 79.786ZM37.6892 73.094V74.326H45.0392V73.094H37.6892ZM41.3712 74.564C39.4392 74.564 38.2072 75.194 38.2072 76.258C38.2072 77.336 39.4392 77.966 41.3712 77.966C43.2892 77.966 44.5212 77.336 44.5212 76.258C44.5212 75.194 43.2892 74.564 41.3712 74.564ZM41.3712 75.712C42.2532 75.712 42.7572 75.88 42.7572 76.258C42.7572 76.636 42.2532 76.818 41.3712 76.818C40.4892 76.818 39.9712 76.636 39.9712 76.258C39.9712 75.88 40.4892 75.712 41.3712 75.712ZM40.4472 72.17V73.78H42.3092V72.17H40.4472ZM59.3441 72.282V85.246H61.1221V72.282H59.3441ZM57.7901 77.252V78.764H59.9321V77.252H57.7901ZM56.6141 72.506V84.63H58.3501V72.506H56.6141ZM50.0761 73.738V75.222H55.9981V73.738H50.0761ZM50.0481 82.306C51.6301 82.306 54.2341 82.264 56.2221 81.83L56.0961 80.486C54.1641 80.752 51.4621 80.794 49.8521 80.794L50.0481 82.306ZM50.8881 74.69V81.186H52.5541V74.69H50.8881ZM53.5201 74.69V81.186H55.1861V74.69H53.5201ZM69.281 75.796V77.266H71.675V75.796H69.281ZM71.437 72.282V81.858H73.299V72.282H71.437ZM64.731 83.538V85.022H73.593V83.538H64.731ZM64.731 81.046V84.574H66.607V81.046H64.731ZM63.051 78.638V80.136H64.059C66.453 80.136 67.909 80.094 69.533 79.786L69.379 78.33C67.769 78.596 66.397 78.638 64.059 78.638H63.051ZM63.051 73.262V78.792H64.899V74.746H68.945V73.262H63.051ZM64.339 75.936V77.378H68.539V75.936H64.339Z" fill="black"/>
<path d="M63.6888 38C63.6869 35.7568 63.1573 33.5454 62.143 31.5446C61.1286 29.5438 59.6579 27.8096 57.8495 26.4822L56.7424 20.3393C56.621 19.6805 56.2719 19.0853 55.7562 18.6577C55.2405 18.2301 54.5909 17.9973 53.921 18H44.8853C44.2154 17.9973 43.5658 18.2301 43.0501 18.6577C42.5343 19.0853 42.1853 19.6805 42.0638 20.3393L40.9567 26.4822C39.1482 27.8091 37.6776 29.5433 36.6639 31.5443C35.6503 33.5453 35.1221 35.7569 35.1221 38C35.1221 40.2431 35.6503 42.4547 36.6639 44.4557C37.6776 46.4567 39.1482 48.1909 40.9567 49.5178L42.0638 55.6607C42.1853 56.3195 42.5343 56.9147 43.0501 57.3423C43.5658 57.7699 44.2154 58.0027 44.8853 58H53.921C54.5909 58.0027 55.2405 57.7699 55.7562 57.3423C56.2719 56.9147 56.621 56.3195 56.7424 55.6607L57.8495 49.5178C59.6579 48.1904 61.1286 46.4562 62.143 44.4554C63.1573 42.4546 63.6869 40.2432 63.6888 38ZM44.8853 20.8572H53.921L54.6174 24.7143C51.2692 23.3804 47.5371 23.3804 44.1888 24.7143L44.8853 20.8572ZM37.9746 38C37.9746 35.7396 38.6448 33.53 39.9006 31.6506C41.1564 29.7712 42.9413 28.3064 45.0296 27.4414C47.1179 26.5764 49.4158 26.3501 51.6327 26.791C53.8496 27.232 55.886 28.3205 57.4843 29.9188C59.0826 31.5171 60.1711 33.5535 60.6121 35.7704C61.0531 37.9873 60.8267 40.2852 59.9617 42.3735C59.0967 44.4618 57.6319 46.2467 55.7525 47.5025C53.8731 48.7583 51.6635 49.4286 49.4031 49.4286C46.3735 49.4238 43.4694 48.2182 41.3271 46.076C39.1849 43.9337 37.9793 41.0296 37.9746 38ZM53.921 55.1428H44.8853L44.1888 51.2857C47.5371 52.6195 51.2692 52.6195 54.6174 51.2857L53.921 55.1428ZM47.9746 38V30.8572C47.9746 30.4783 48.1251 30.1149 48.393 29.847C48.6609 29.5791 49.0242 29.4286 49.4031 29.4286C49.782 29.4286 50.1454 29.5791 50.4133 29.847C50.6812 30.1149 50.8317 30.4783 50.8317 30.8572C50.8317 31.236 50.8317 36.5714 50.8317 36.5714H56.546C56.9249 36.5714 57.2882 36.7219 57.5561 36.9898C57.824 37.2578 57.9745 37.6211 57.9745 38C57.9745 38.3789 57.824 38.7422 57.5561 39.0102C57.2882 39.2781 56.9249 39.4286 56.546 39.4286H49.4031C49.0242 39.4286 48.6609 39.2781 48.393 39.0102C48.1251 38.7422 47.9746 38.3789 47.9746 38Z" fill="black"/>
</svg>
