<svg width="100" height="100" viewBox="0 0 100 100" fill="none" xmlns="http://www.w3.org/2000/svg">
<path d="M43.5252 75.568V77.024H55.2432V75.568H43.5252ZM48.4392 73.454V76.016H50.3012V73.454H48.4392ZM44.8132 77.906V79.376H52.0092V82.288H53.8572V77.906H44.8132ZM44.9392 72.95V74.434H53.9692V72.95H44.9392ZM44.9392 69.8V73.748H46.8012V71.27H53.8572V69.8H44.9392ZM62.5201 73.328V74.826H65.9361V73.328H62.5201ZM58.9921 70.276V72.152C58.9921 74.616 58.0121 77.122 55.8001 78.144L56.9621 79.642C59.3981 78.424 60.5041 75.414 60.5041 72.152V70.276H58.9921ZM59.3841 70.276V72.152C59.3841 75.386 60.4061 78.242 62.8421 79.418L63.9481 77.934C61.8061 76.982 60.8681 74.616 60.8681 72.152V70.276H59.3841ZM65.0121 69.268V82.274H66.8601V69.268H65.0121Z" fill="black"/>
<ellipse cx="33.0643" cy="38.6472" rx="12.0643" ry="13.2353" fill="#FF8E8E" fill-opacity="0.5"/>
<path d="M39.2847 28.9998C39.2847 28.9998 41.7847 25.6665 47.618 25.6665C53.4513 25.6665 55.9513 28.9998 55.9513 28.9998V52.3332C55.9513 52.3332 53.4513 50.6665 47.618 50.6665C41.7847 50.6665 39.2847 52.3332 39.2847 52.3332V28.9998ZM55.9513 28.9998C55.9513 28.9998 58.4513 25.6665 64.2847 25.6665C70.118 25.6665 72.618 28.9998 72.618 28.9998V52.3332C72.618 52.3332 70.118 50.6665 64.2847 50.6665C58.4513 50.6665 55.9513 52.3332 55.9513 52.3332V28.9998Z" stroke="black" stroke-width="1.66667" stroke-linecap="round" stroke-linejoin="round"/>
</svg>
