<svg width="101" height="100" viewBox="0 0 101 100" fill="none" xmlns="http://www.w3.org/2000/svg">
<circle cx="59.1221" cy="36" r="18" fill="#FFB55D" fill-opacity="0.5"/>
<path d="M34.6821 76.582V78.052H46.4281V76.582H34.6821ZM39.7081 77.548V80.278H41.5981V77.548H39.7081ZM36.0541 81.524V83.022H45.1401V81.524H36.0541ZM36.0541 79.144V81.902H37.9301V79.144H36.0541ZM40.5481 70.52C37.7481 70.52 35.8861 71.57 35.8861 73.208C35.8861 74.86 37.7481 75.896 40.5481 75.896C43.3341 75.896 45.2101 74.86 45.2101 73.208C45.2101 71.57 43.3341 70.52 40.5481 70.52ZM40.5481 71.99C42.1861 71.99 43.2081 72.41 43.2081 73.208C43.2081 74.006 42.1861 74.412 40.5481 74.412C38.9101 74.412 37.8881 74.006 37.8881 73.208C37.8881 72.41 38.9101 71.99 40.5481 71.99ZM47.167 76.372V77.856H58.899V76.372H47.167ZM52.109 74.426V76.946H53.957V74.426H52.109ZM48.581 73.838V75.308H57.569V73.838H48.581ZM48.581 70.842V74.776H50.429V72.298H57.499V70.842H48.581ZM52.991 78.5C50.191 78.5 48.483 79.354 48.483 80.88C48.483 82.406 50.191 83.26 52.991 83.26C55.791 83.26 57.485 82.406 57.485 80.88C57.485 79.354 55.791 78.5 52.991 78.5ZM52.991 79.9C54.727 79.9 55.609 80.222 55.609 80.88C55.609 81.552 54.727 81.846 52.991 81.846C51.255 81.846 50.373 81.552 50.373 80.88C50.373 80.222 51.255 79.9 52.991 79.9Z" fill="black"/>
<rect x="26.7054" y="26.0833" width="4.66668" height="22.1667" rx="2.33333" fill="#F3F3F3" stroke="black" stroke-width="1.16667"/>
<rect x="31.3719" y="23.1668" width="4.66668" height="28" rx="2.33333" fill="#E9E9E9" stroke="black" stroke-width="1.16667"/>
<rect x="62.8719" y="25.5001" width="4.66668" height="22.1667" rx="2.33333" fill="#F3F3F3" stroke="black" stroke-width="1.16667"/>
<rect x="58.2054" y="22.5833" width="4.66668" height="28" rx="2.33333" fill="#D9D9D9" stroke="black" stroke-width="1.16667"/>
<rect x="36.0389" y="34.2501" width="22.1667" height="4.66668" fill="#CBCBCB" stroke="black" stroke-width="1.16667"/>
</svg>
